<?xml version="1.0" encoding="UTF-8"?>
<svg width="16px" height="16px" viewBox="0 0 16 16" version="1.1" xmlns="http://www.w3.org/2000/svg" xmlns:xlink="http://www.w3.org/1999/xlink">
    <title>Group 10</title>
    <g id="Page-1" stroke="none" stroke-width="1" fill="none" fill-rule="evenodd">
        <g id="Tablet" transform="translate(-699.000000, -256.000000)">
            <g id="Group-7" transform="translate(30.000000, 234.000000)">
                <g id="Button" transform="translate(653.000000, 5.000000)">
                    <g id="trash-alt-solid" transform="translate(16.000000, 17.000000)">
                        <g id="Group-10" transform="translate(0.000000, -0.000011)">
                            <path d="M2,14.500011 C2,15.3284381 2.67157288,16.000011 3.5,16.000011 L12.5,16.000011 C13.3284271,16.000011 14,15.3284381 14,14.500011 L14,4.00001096 L2,4.00001096 L2,14.500011 Z M10.5,6.50001096 C10.5,6.22386859 10.7238576,6.00001096 11,6.00001096 C11.2761424,6.00001096 11.5,6.22386859 11.5,6.50001096 L11.5,13.500011 C11.5,13.7761533 11.2761424,14.000011 11,14.000011 C10.7238576,14.000011 10.5,13.7761533 10.5,13.500011 L10.5,6.50001096 Z M7.5,6.50001096 C7.5,6.22386859 7.72385763,6.00001096 8,6.00001096 C8.27614237,6.00001096 8.5,6.22386859 8.5,6.50001096 L8.5,13.500011 C8.5,13.7761533 8.27614237,14.000011 8,14.000011 C7.72385763,14.000011 7.5,13.7761533 7.5,13.500011 L7.5,6.50001096 Z M4.5,6.50001096 C4.5,6.22386859 4.72385763,6.00001096 5,6.00001096 C5.27614237,6.00001096 5.5,6.22386859 5.5,6.50001096 L5.5,13.500011 C5.5,13.7761533 5.27614237,14.000011 5,14.000011 C4.72385763,14.000011 4.5,13.7761533 4.5,13.500011 L4.5,6.50001096 Z M14.5,1.00000545 L10.75,1.00000545 L10.45625,0.415635962 C10.3293259,0.160805567 10.0690647,-0.000193221609 9.784375,5.4532243e-06 L6.2125,5.4532243e-06 C5.92834575,-0.00108138339 5.66857544,0.160364649 5.54375,0.415635962 L5.25,1.00000545 L1.5,1.00000545 C1.22385763,1.00000545 1,1.22386859 1,1.50000545 L1,2.50000545 C1,2.77615334 1.22385763,3.00000545 1.5,3.00000545 L14.5,3.00000545 C14.7761424,3.00000545 15,2.77615334 15,2.50000545 L15,1.50000545 C15,1.22386859 14.7761424,1.00000545 14.5,1.00000545 Z" id="Shape" fill="#FCFCFC" fill-rule="nonzero"></path>
                            <rect id="Rectangle" x="0" y="0" width="16" height="16"></rect>
                        </g>
                    </g>
                </g>
            </g>
        </g>
    </g>
</svg>