<?xml version="1.0" encoding="UTF-8"?>
<svg width="16px" height="16px" viewBox="0 0 16 16" version="1.1" xmlns="http://www.w3.org/2000/svg" xmlns:xlink="http://www.w3.org/1999/xlink">
    <title>plus-solid</title>
    <g id="Page-1" stroke="none" stroke-width="1" fill="none" fill-rule="evenodd">
        <g id="Tablet" transform="translate(-700.000000, -136.000000)" fill="#FCFCFC" fill-rule="nonzero">
            <g id="Group-4" transform="translate(30.000000, 30.000000)">
                <g id="Button" transform="translate(653.000000, 89.000000)">
                    <g id="plus-solid" transform="translate(17.000000, 17.000000)">
                        <path d="M14.8571429,6.28571429 L9.71428571,6.28571429 L9.71428571,1.14285714 C9.71428571,0.511785714 9.2025,0 8.57142857,0 L7.42857143,0 C6.7975,0 6.28571429,0.511785714 6.28571429,1.14285714 L6.28571429,6.28571429 L1.14285714,6.28571429 C0.511785714,6.28571429 0,6.7975 0,7.42857143 L0,8.57142857 C0,9.2025 0.511785714,9.71428571 1.14285714,9.71428571 L6.28571429,9.71428571 L6.28571429,14.8571429 C6.28571429,15.4882143 6.7975,16 7.42857143,16 L8.57142857,16 C9.2025,16 9.71428571,15.4882143 9.71428571,14.8571429 L9.71428571,9.71428571 L14.8571429,9.71428571 C15.4882143,9.71428571 16,9.2025 16,8.57142857 L16,7.42857143 C16,6.7975 15.4882143,6.28571429 14.8571429,6.28571429 Z" id="Path"></path>
                    </g>
                </g>
            </g>
        </g>
    </g>
</svg>