<?xml version="1.0" encoding="UTF-8"?>
<svg width="512px" height="512px" viewBox="0 0 512 512" version="1.1" xmlns="http://www.w3.org/2000/svg" xmlns:xlink="http://www.w3.org/1999/xlink">
    <title>Logo</title>
    <g id="Logo" stroke="none" stroke-width="1" fill="none" fill-rule="evenodd">
        <rect id="Rectangle" fill="#FCFCFC" x="0" y="0" width="512" height="512"></rect>
        <g id="Group" transform="translate(96.000000, 136.000000)" fill-rule="nonzero">
            <g id="check-duotone">
                <path d="M315.304503,50.5056416 L165.180084,202 L119.626168,156.183451 L269.976008,4.73936428 C272.957945,1.72148654 277.012752,0.0166212354 281.247701,0 C285.48265,-0.0163794571 289.550526,1.65683799 292.555722,4.65138847 L292.643386,4.73936428 L315.304503,27.6193609 C321.565166,33.9544859 321.565166,44.1705166 315.304503,50.5056416 Z" id="Path" fill="#06D6A0" opacity="0.4"></path>
                <path d="M165.482866,201.879727 L131.36365,236.274922 C125.161675,242.540593 115.067896,242.579883 108.817581,236.362681 L108.730048,236.274922 L4.69050986,131.365504 C-1.56350329,125.049555 -1.56350329,114.857888 4.69050986,108.541939 L27.3241113,85.7183736 C33.5152099,79.4690409 43.5829744,79.4213762 49.8326653,85.6118093 L49.9327033,85.7183736 L165.482866,201.879727 Z" id="Path" fill="#118AB2"></path>
            </g>
        </g>
    </g>
</svg>